<svg id="圖層_1" data-name="圖層 1" xmlns="http://www.w3.org/2000/svg" viewBox="0 0 461.45 120.25"><defs><style>.cls-1{fill:#fff;}.cls-2{fill:#999;}.cls-3{fill:#b3b3b3;}</style></defs><title>navi</title><circle class="cls-1" cx="60.12" cy="60.12" r="60.12"/><path class="cls-2" d="M158.31,30.12A103.61,103.61,0,0,1,171.8,72.44a91.79,91.79,0,0,1,.11,13.84A21.85,21.85,0,0,1,181.56,76a24.49,24.49,0,0,1,11.55-2.75,168.42,168.42,0,0,0-10.93-16.87A174.71,174.71,0,0,0,158.31,30.12Z" transform="translate(-92.28 -3.75)"/><path class="cls-3" d="M132.82,22.88a129,129,0,0,1,15.72,53.24,118.73,118.73,0,0,1-.19,17.51c0.5-1.44,4.14-11.32,14.62-15.1a24.56,24.56,0,0,1,15.35-.29,73.77,73.77,0,0,0-12-28.91A75.52,75.52,0,0,0,132.82,22.88Z" transform="translate(-92.28 -3.75)"/><path class="cls-3" d="M190.24,92.34l-65.57,10.45L108.55,78c10.1,1.47,32.91,2.56,45.21,2.87A283,283,0,0,0,201.58,78C198,83.73,193.81,86.56,190.24,92.34Z" transform="translate(-92.28 -3.75)"/><path class="cls-1" d="M278.91,89.48a27.3,27.3,0,0,1-11.45,2.27,29.85,29.85,0,0,1-10.91-1.94,25.18,25.18,0,0,1-14.44-14A28,28,0,0,1,240,64.81a27.93,27.93,0,0,1,2.12-11.09A24.66,24.66,0,0,1,248,45.27a26,26,0,0,1,8.78-5.36,31.49,31.49,0,0,1,21.49,0,20.34,20.34,0,0,1,8.46,5.58l-8.35,8.35a10.34,10.34,0,0,0-4.54-3.53,15.06,15.06,0,0,0-5.76-1.15,14.59,14.59,0,0,0-5.94,1.19,13.94,13.94,0,0,0-4.64,3.28,14.94,14.94,0,0,0-3,4.93,17.41,17.41,0,0,0-1.08,6.23,17.91,17.91,0,0,0,1.08,6.34,14.74,14.74,0,0,0,3,4.93,13.44,13.44,0,0,0,4.57,3.2,14.52,14.52,0,0,0,5.83,1.15A13.56,13.56,0,0,0,274.3,79a12.41,12.41,0,0,0,4.39-3.74l8.57,8.06A24.28,24.28,0,0,1,278.91,89.48Z" transform="translate(-92.28 -3.75)"/><path class="cls-1" d="M328.16,89.48a27.3,27.3,0,0,1-11.45,2.27A29.85,29.85,0,0,1,305.8,89.8a25.18,25.18,0,0,1-14.44-14,28,28,0,0,1-2.09-10.94,27.93,27.93,0,0,1,2.12-11.09,24.66,24.66,0,0,1,5.87-8.46,26,26,0,0,1,8.78-5.36,31.49,31.49,0,0,1,21.49,0A20.34,20.34,0,0,1,336,45.52l-8.35,8.35a10.34,10.34,0,0,0-4.54-3.53,15.07,15.07,0,0,0-5.76-1.15,14.59,14.59,0,0,0-5.94,1.19,13.94,13.94,0,0,0-4.64,3.28,14.94,14.94,0,0,0-3,4.93,17.41,17.41,0,0,0-1.08,6.23,17.91,17.91,0,0,0,1.08,6.34,14.74,14.74,0,0,0,3,4.93,13.44,13.44,0,0,0,4.57,3.2,14.52,14.52,0,0,0,5.83,1.15A13.56,13.56,0,0,0,323.55,79a12.41,12.41,0,0,0,4.39-3.74l8.57,8.06A24.28,24.28,0,0,1,328.16,89.48Z" transform="translate(-92.28 -3.75)"/><path class="cls-1" d="M383.42,79.54A18.26,18.26,0,0,1,379,86,20.44,20.44,0,0,1,372,90.23a27.87,27.87,0,0,1-18.11,0A19.7,19.7,0,0,1,347.1,86a18.29,18.29,0,0,1-4.32-6.48,22.4,22.4,0,0,1-1.51-8.39V39.4H353.5V70.14a14.2,14.2,0,0,0,.54,4,10.13,10.13,0,0,0,1.66,3.35,7.76,7.76,0,0,0,3,2.34,11.78,11.78,0,0,0,8.86,0,8.09,8.09,0,0,0,3-2.34,9.33,9.33,0,0,0,1.66-3.35,15.17,15.17,0,0,0,.5-4V39.4H385V71.15A22,22,0,0,1,383.42,79.54Z" transform="translate(-92.28 -3.75)"/><path class="cls-1" d="M396.41,39.4h14.4a27.94,27.94,0,0,1,7.06.83,15.58,15.58,0,0,1,5.44,2.52A11.35,11.35,0,0,1,426.8,47,13.79,13.79,0,0,1,428,53a13.46,13.46,0,0,1-1.26,6,11.66,11.66,0,0,1-3.53,4.25,16,16,0,0,1-5.47,2.56,27.21,27.21,0,0,1-7.09.86H401.6V90.38h-5.18v-51Zm5.18,22.9h8.78q6.12,0,9.29-2.38A8.11,8.11,0,0,0,422.84,53q0-4.75-3.28-6.95t-9.18-2.2H401.6V62.29Z" transform="translate(-92.28 -3.75)"/><path class="cls-1" d="M443.36,85.77h23.76v4.61H438.17v-51h5.18V85.77Z" transform="translate(-92.28 -3.75)"/><path class="cls-1" d="M492,91.67a19.79,19.79,0,0,1-9.43-2,16.82,16.82,0,0,1-5.83-5,18.41,18.41,0,0,1-3-6.59,29.8,29.8,0,0,1-.83-6.73v-32h5.18V70.79a25,25,0,0,0,.72,6A15,15,0,0,0,481.12,82a12.08,12.08,0,0,0,4.28,3.67,16,16,0,0,0,13.1,0A12.09,12.09,0,0,0,502.79,82a15,15,0,0,0,2.34-5.18,25.07,25.07,0,0,0,.72-6V39.4H511v32a29.81,29.81,0,0,1-.83,6.73,18.41,18.41,0,0,1-3,6.59,16.74,16.74,0,0,1-5.87,5A19.84,19.84,0,0,1,492,91.67Z" transform="translate(-92.28 -3.75)"/><path class="cls-1" d="M549,47.61a12.45,12.45,0,0,0-4.25-3.71,13,13,0,0,0-6.26-1.4,13.41,13.41,0,0,0-3.82.58,11.07,11.07,0,0,0-3.53,1.76,9.07,9.07,0,0,0-2.56,3,8.82,8.82,0,0,0-1,4.25,7.85,7.85,0,0,0,.93,4A8.85,8.85,0,0,0,531,58.8a14.33,14.33,0,0,0,3.52,1.84q2,0.72,4.13,1.44Q541.31,62.94,544,64a19.26,19.26,0,0,1,4.85,2.63,12.73,12.73,0,0,1,3.52,4.1,13,13,0,0,1,1.36,6.3,14,14,0,0,1-1.46,6.59,13.81,13.81,0,0,1-3.78,4.57,15.73,15.73,0,0,1-5.31,2.66,21.58,21.58,0,0,1-6,.86,23.13,23.13,0,0,1-4.61-.47,20.86,20.86,0,0,1-4.39-1.4,17.86,17.86,0,0,1-3.89-2.38,17.21,17.21,0,0,1-3.17-3.31l4.46-3.31a13.64,13.64,0,0,0,4.64,4.57,13.13,13.13,0,0,0,7,1.84,13.59,13.59,0,0,0,4-.61,11.14,11.14,0,0,0,3.64-1.87,10.37,10.37,0,0,0,2.66-3.1,9.61,9.61,0,0,0,0-8.71,9.3,9.3,0,0,0-2.77-3,17,17,0,0,0-4-2q-2.23-.79-4.68-1.58t-5-1.8A16.8,16.8,0,0,1,526.73,62a12.28,12.28,0,0,1-3.13-4,13,13,0,0,1-1.19-5.83,12.87,12.87,0,0,1,1.48-6.34,13.35,13.35,0,0,1,3.85-4.39A16.14,16.14,0,0,1,533,38.9a21.38,21.38,0,0,1,5.69-.79,19.63,19.63,0,0,1,8.86,1.84,15.22,15.22,0,0,1,5.54,4.36Z" transform="translate(-92.28 -3.75)"/></svg>